<?xml version="1.0" encoding="utf-8"?>
<!-- Generator: Adobe Illustrator 24.1.1, SVG Export Plug-In . SVG Version: 6.00 Build 0)  -->
<svg version="1.1" id="Layer_1" xmlns="http://www.w3.org/2000/svg" xmlns:xlink="http://www.w3.org/1999/xlink" x="0px" y="0px"
	 viewBox="0 0 512 512" style="enable-background:new 0 0 512 512;" xml:space="preserve">
<style type="text/css">
	.st0{fill:#231F20;}
</style>
<g>
	<path class="st0" d="M434.1,0H77.9C34.9,0,0,34.9,0,77.9v356.1C0,477.1,34.9,512,77.9,512h356.1c43.1,0,77.9-34.9,77.9-77.9V77.9
		C512,34.9,477.1,0,434.1,0z M113.8,227.6H56.9v-56.9h56.9V227.6z M56.9,284.4h56.9v56.9H56.9V284.4z M455.1,227.6h-56.9v-56.9h56.9
		V227.6z M398.2,284.4h56.9v56.9h-56.9V284.4z M455.1,77.9v35.8h-56.9V56.9h35.8C445.7,56.9,455.1,66.3,455.1,77.9z M77.9,56.9h35.8
		v56.9H56.9V77.9C56.9,66.3,66.3,56.9,77.9,56.9z M56.9,434.1v-35.8h56.9v56.9H77.9C66.3,455.1,56.9,445.7,56.9,434.1z M455.1,434.1
		c0,11.6-9.4,21.1-21.1,21.1h-35.8v-56.9h56.9V434.1z"/>
</g>
</svg>
